<svg xmlns="http://www.w3.org/2000/svg" viewBox="0 0 45.91 53.94"><defs><style>.cls-1{font-size:5.84px;font-family:Montserrat-Bold, Montserrat;font-weight:700;}.cls-1,.cls-10,.cls-5{fill:#2c6286;}.cls-2{letter-spacing:-0.04em;}.cls-3{letter-spacing:-0.04em;}.cls-4{letter-spacing:-0.01em;}.cls-5,.cls-6,.cls-7,.cls-8,.cls-9{fill-rule:evenodd;}.cls-6{fill:#4581ae;}.cls-7{fill:#71b0dc;}.cls-8{fill:#7bc4f5;}.cls-9{fill:#b0defd;}</style></defs><g id="Layer_2" data-name="Layer 2"><g id="Layer_1-2" data-name="Layer 1"><text class="cls-1" transform="translate(0.09 52.39)">JMR <tspan class="cls-2" x="14.69" y="0">W</tspan><tspan class="cls-3" x="21.26" y="0">A</tspan><tspan class="cls-4" x="25.53" y="0">T</tspan><tspan x="29.08" y="0">CHES</tspan></text><path class="cls-5" d="M7.92.35A43.87,43.87,0,0,0,2.43,0V12.84a31.14,31.14,0,0,1,3.86.25Z"/><path class="cls-6" d="M20.71,4a43.75,43.75,0,0,0-8.83-3L9.09,13.58a30.38,30.38,0,0,1,6.22,2.1Z"/><path class="cls-7" d="M32.55,12.12a43.33,43.33,0,0,0-8.24-6.21L17.84,17a30.22,30.22,0,0,1,5.81,4.38Z"/><path class="cls-8" d="M41.94,25.33A43.83,43.83,0,0,0,35.2,14.9l-9.68,8.44a31.14,31.14,0,0,1,4.75,7.35Z"/><path class="cls-9" d="M45.91,43.5a43.81,43.81,0,0,0-.59-7.14,43.65,43.65,0,0,0-1.75-6.95L31.42,33.57a31,31,0,0,1,1.65,9.93Z"/><polygon class="cls-8" points="3.73 41.53 1.89 41.53 2.35 17.37 3.27 17.37 3.73 41.53"/><polygon class="cls-8" points="4.21 43.81 4.21 41.78 22.9 42.29 22.9 43.3 4.21 43.81"/><rect class="cls-10" x="0.82" y="40.93" width="3.94" height="3.94" transform="translate(-29.52 14.54) rotate(-45)"/></g></g></svg>